<svg id="bulb" xmlns="http://www.w3.org/2000/svg" viewBox="0 0 107.87 196.3"><defs><style>.cls-1{fill:#fff;}</style></defs><title>bulb</title><g id="upper1"><rect class="cls-1" x="16.24" y="7.63" width="72.44" height="11.94" rx="5.97" transform="translate(-1.74 13.68) rotate(-14.62)"/></g><path id="r.curve" class="cls-1" d="M68.43,130.5a32.28,32.28,0,0,1,1.12-6.41,54.72,54.72,0,0,1,2.22-7.26,53.82,53.82,0,0,1,3.91-8.06A29.56,29.56,0,0,1,83,101.24a29,29,0,0,1,7.56-3.85,36.78,36.78,0,0,1,5.8-.8,14.74,14.74,0,0,1,3.64.1,7,7,0,0,1,4,1.62,6.31,6.31,0,0,1,1.61,5.21,4.15,4.15,0,0,1-1,2.48c-1.45,1.46-3.74.67-6.88,1a16.66,16.66,0,0,0-6.28,2.12,19.45,19.45,0,0,0-5.16,4A20,20,0,0,0,83.11,118a24.28,24.28,0,0,0-1.52,3.85,38.92,38.92,0,0,0-1.21,5.46c-.35,2-.33,2.63-.81,6-.52,3.61-.68,3.92-.9,4.22-1.63,2.18-6.13,2.83-8.52.85C68.22,136.7,68.31,133.91,68.43,130.5Z"/><rect id="base1" class="cls-1" x="14.39" y="146.18" width="77.28" height="9.07"/><path id="base2" class="cls-1" d="M19,159.12H85.67a15.6,15.6,0,0,1-.55,4.24c-.29,1-.68,2-1,2.73s-.68,1.58-.92,2.08L21.46,168l-.81-1.51c-.29-1-.57-2.12-.82-3.26C19.5,161.78,19.25,160.41,19,159.12Z"/><path id="base3" class="cls-1" d="M21.75,171.61l61.4-.11a46.54,46.54,0,0,1-.91,5.33c-.27,1.2-.58,2.32-.91,3.37h-57c-.39-.87-.78-1.83-1.14-2.87A32.57,32.57,0,0,1,21.75,171.61Z"/><path id="base4" class="cls-1" d="M25.15,184l54.89.16a19.94,19.94,0,0,1-1.47,3.77,21,21,0,0,1-7.88,8.26L35,196.3a23.35,23.35,0,0,1-8-8.25A22.63,22.63,0,0,1,25.15,184Z"/><path id="l.curve" class="cls-1" d="M37.17,132.41a30.2,30.2,0,0,0-.76-6.24A49.93,49.93,0,0,0,34.62,119a51.79,51.79,0,0,0-3.44-8,28.78,28.78,0,0,0-6.88-7.69A29.58,29.58,0,0,0,17,99.16,38.41,38.41,0,0,0,11.22,98a15.35,15.35,0,0,0-3.64-.12,7.25,7.25,0,0,0-4.13,1.32,6,6,0,0,0-1.91,4.93,3.9,3.9,0,0,0,.86,2.46c1.36,1.49,3.69.86,6.81,1.38a17,17,0,0,1,6.14,2.43,19.44,19.44,0,0,1,4.93,4.11,19.2,19.2,0,0,1,2.95,4.88,23.77,23.77,0,0,1,1.3,3.8,35.68,35.68,0,0,1,.9,5.35c.22,2,.17,2.56.46,5.81.32,3.51.45,3.82.66,4.12,1.49,2.2,5.95,3.09,8.45,1.32C37,138.4,37.09,135.71,37.17,132.41Z"/><g id="upper2"><rect class="cls-1" x="-1.54" y="33.32" width="107.3" height="11.94" rx="5.97" transform="translate(-8.23 14.42) rotate(-14.62)"/></g><g id="upper3"><rect class="cls-1" x="-1.54" y="58.13" width="111.01" height="11.94" rx="5.97" transform="translate(-14.43 15.69) rotate(-14.62)"/></g><g id="upper4"><rect class="cls-1" x="-1.41" y="83.37" width="110.16" height="11.94" rx="5.97" transform="matrix(0.97, -0.25, 0.25, 0.97, -20.81, 16.44)"/></g></svg>