<svg id="Layer_1" data-name="Layer 1" xmlns="http://www.w3.org/2000/svg" viewBox="0 0 221.9 434.4"><defs><style>.cls-1{fill:#fff;}</style></defs><title>icon-white</title><path class="cls-1" d="M205.5,103.1h0a16.47,16.47,0,0,1-16.4-16.4V16.4A16.47,16.47,0,0,1,205.5,0h0a16.47,16.47,0,0,1,16.4,16.4V86.7A16.35,16.35,0,0,1,205.5,103.1Z"/><path class="cls-1" d="M147.6,117h0a16.44,16.44,0,0,1-22.2-7L92.9,47.7a16.44,16.44,0,0,1,7-22.2h0a16.44,16.44,0,0,1,22.2,7l32.5,62.3A16.53,16.53,0,0,1,147.6,117Z"/><path class="cls-1" d="M104.8,161h0a16.45,16.45,0,0,1-22.5,5.8L21.8,131A16.45,16.45,0,0,1,16,108.5h0a16.45,16.45,0,0,1,22.5-5.8L99,138.5A16.45,16.45,0,0,1,104.8,161Z"/><path class="cls-1" d="M205.5,331.3h0a16.47,16.47,0,0,0-16.4,16.4V418a16.47,16.47,0,0,0,16.4,16.4h0A16.47,16.47,0,0,0,221.9,418V347.8A16.37,16.37,0,0,0,205.5,331.3Z"/><path class="cls-1" d="M147.6,317.5h0a16.44,16.44,0,0,0-22.2,7L92.9,386.8a16.44,16.44,0,0,0,7,22.2h0a16.44,16.44,0,0,0,22.2-7l32.5-62.3A16.53,16.53,0,0,0,147.6,317.5Z"/><path class="cls-1" d="M104.8,273.4h0a16.45,16.45,0,0,0-22.5-5.8L21.8,303.4A16.45,16.45,0,0,0,16,325.9h0a16.45,16.45,0,0,0,22.5,5.8L99,295.9A16.43,16.43,0,0,0,104.8,273.4Z"/><path class="cls-1" d="M103.2,221.1h0a16.49,16.49,0,0,1-16.3,16.6l-70.3.7A16.49,16.49,0,0,1,0,222.1H0a16.49,16.49,0,0,1,16.3-16.6l70.3-.7A16.49,16.49,0,0,1,103.2,221.1Z"/></svg>