<?xml version="1.0" encoding="utf-8"?>
<!-- Generator: Adobe Illustrator 24.0.1, SVG Export Plug-In . SVG Version: 6.00 Build 0)  -->
<svg version="1.1" id="Layer_1" xmlns="http://www.w3.org/2000/svg" xmlns:xlink="http://www.w3.org/1999/xlink" x="0px" y="0px"
	 viewBox="0 0 402.4 566.4" style="enable-background:new 0 0 402.4 566.4;" xml:space="preserve">
<style type="text/css">
	.st0{fill:#F26739;}
	.st1{fill:#99CA3D;}
	.st2{fill:#FDBA2F;}
	.st3{fill:#FFFFFF;}
	.st4{font-family:'ArialMT';}
	.st5{font-size:34px;}
	.st6{fill:none;stroke:#FFFFFF;stroke-width:0.25;}
</style>
<image style="display:none;overflow:visible;enable-background:new    ;" width="1634" height="2300" transform="matrix(1 0 0 1 -771 -812.7244)">
</image>
<path class="st0" d="M133.8,439.2c7.1,3.3,13.1,5.7,20.6,8c83.6,25.8,172.3-21,198.1-104.6l-151.4-46.7L49.8,249.1
	C26.3,325.1,61.8,405.4,133.8,439.2z"/>
<path class="st1" d="M49.8,249.1l151.4,46.7l151.4,46.7c14.1-45.6,7.6-92.6-18.3-132.6c-21.5-33.4-48.4-53.7-86.4-65.5
	C164.3,118.7,75.6,165.5,49.8,249.1z"/>
<path class="st2" d="M201.2,295.9L64.6,376.7c6.2,10.2,16.2,24.3,31.6,38c14.9,13.3,28.4,20.5,32.5,22.6
	c7.6,3.9,37.1,18.3,77.6,16.9c14.9-0.5,27.1-3,35-5.1L201.2,295.9z"/>
<g id="PM">
	<text transform="matrix(1 0 0 1 62.0075 311.6325)" class="st3 st4 st5">P.M.</text>
	<text transform="matrix(1 0 0 1 62.0075 311.6325)" class="st6 st4 st5">P.M.</text>
</g>
<g id="AM">
	<text transform="matrix(1 0 0 1 274.7803 311.6325)" class="st3 st4 st5">A.M.</text>
	<text transform="matrix(1 0 0 1 274.7803 311.6325)" class="st6 st4 st5">A.M.</text>
</g>
</svg>
