<?xml version="1.0" encoding="utf-8"?>
<!-- Generator: Adobe Illustrator 22.1.0, SVG Export Plug-In . SVG Version: 6.00 Build 0)  -->
<svg version="1.1" id="Layer_1" xmlns="http://www.w3.org/2000/svg" xmlns:xlink="http://www.w3.org/1999/xlink" x="0px" y="0px"
	 viewBox="0 0 402.4 566.4" style="enable-background:new 0 0 402.4 566.4;" xml:space="preserve">
<style type="text/css">
	.st0{fill:#99CA3C;}
	.st1{fill:none;}
	.st2{fill:#FFFFFF;stroke:#FFFFFF;stroke-width:0.25;}
	.st3{font-family:'MyriadPro-Regular';}
	.st4{font-size:34px;}
</style>
<image style="display:none;overflow:visible;" width="1634" height="2300" transform="matrix(1 0 0 1 -771 -812.7244)">
</image>
<path class="st0" d="M334.3,210c-21.5-33.4-48.4-53.7-86.4-65.5c-83.6-25.8-172.3,21-198.1,104.6c-13.7,44.4-7.3,90.4,14.8,127.6
	l0,0c0,0,2,3.8,6.3,9.8c15.4,22.1,36.7,40.5,62.9,52.8c7.1,3.3,13.1,5.7,20.6,8c83.6,25.8,172.3-21,198.1-104.6
	C366.6,297,360.1,250,334.3,210z"/>
<rect x="62" y="287.5" class="st1" width="71.7" height="31.3"/>
<text transform="matrix(1 0 0 1 62.0075 311.6325)" class="st2 st3 st4">P.M.</text>
<rect x="274.8" y="287.5" class="st1" width="79.6" height="31.3"/>
<text transform="matrix(1 0 0 1 274.7803 311.6325)" class="st2 st3 st4">A.M.</text>
</svg>
