<?xml version="1.0" encoding="utf-8"?>
<!-- Generator: Adobe Illustrator 24.0.1, SVG Export Plug-In . SVG Version: 6.00 Build 0)  -->
<svg version="1.1" id="Layer_1" xmlns="http://www.w3.org/2000/svg" xmlns:xlink="http://www.w3.org/1999/xlink" x="0px" y="0px"
	 viewBox="0 0 402.4 566.4" style="enable-background:new 0 0 402.4 566.4;" xml:space="preserve">
<style type="text/css">
	.st0{fill:none;stroke:#6F6F6F;stroke-width:7;stroke-linecap:round;stroke-miterlimit:10;}
</style>
<circle class="st0" cx="169" cy="283.2" r="40.5"/>
<line class="st0" x1="166.2" y1="229" x2="163.9" y2="203.6"/>
<line class="st0" x1="146.6" y1="234.1" x2="135.8" y2="210.5"/>
<line class="st0" x1="128.3" y1="247.9" x2="108.6" y2="230.8"/>
<line class="st0" x1="117.3" y1="268" x2="92.3" y2="260.6"/>
<line class="st0" x1="115.6" y1="290.8" x2="89.9" y2="294.5"/>
<line class="st0" x1="123.6" y1="312.3" x2="101.7" y2="326.3"/>
<line class="st0" x1="139.8" y1="328.5" x2="125.7" y2="350.4"/>
<line class="st0" x1="161.2" y1="336.6" x2="157.5" y2="362.3"/>
<line class="st0" x1="184.1" y1="335" x2="191.3" y2="359.9"/>
<line class="st0" x1="204.2" y1="324" x2="221.2" y2="343.7"/>
<line class="st0" x1="218" y1="305.7" x2="241.6" y2="316.6"/>
<line class="st0" x1="222.9" y1="283.4" x2="248.9" y2="283.5"/>
<line class="st0" x1="218.1" y1="261" x2="241.8" y2="250.3"/>
<line class="st0" x1="204.5" y1="242.6" x2="221.6" y2="223"/>
<line class="st0" x1="184.4" y1="231.5" x2="191.8" y2="206.6"/>
</svg>
