<?xml version="1.0" encoding="utf-8"?>
<!-- Generator: Adobe Illustrator 22.1.0, SVG Export Plug-In . SVG Version: 6.00 Build 0)  -->
<svg version="1.1" id="Layer_1" xmlns="http://www.w3.org/2000/svg" xmlns:xlink="http://www.w3.org/1999/xlink" x="0px" y="0px"
	 viewBox="0 0 255 68.2" style="enable-background:new 0 0 255 68.2;" xml:space="preserve">
<style type="text/css">
	.st0{fill:none;stroke:#F26739;stroke-width:3;stroke-miterlimit:10;}
	.st1{enable-background:new    ;}
	.st2{fill:#525353;stroke:#525353;stroke-linejoin:round;stroke-miterlimit:10;}
</style>
<path class="st0" d="M13.7,55.2c0,0-0.5-31.2,27.2-31.2s32.9,0,32.9,0"/>
<path class="st0" d="M239,55.2c0,0,0.5-31.2-27.2-31.2s-32.9,0-32.9,0"/>
<g class="st1">
	<path class="st2" d="M88.7,22.4l-3-12.4h1.6l1.7,8.1c0.2,0.8,0.3,1.7,0.5,2.5c0.3-1.3,0.5-2.1,0.5-2.3l2.1-8.4H94l1.6,6.2
		c0.4,1.6,0.7,3,0.9,4.4c0.2-0.8,0.3-1.7,0.6-2.7l1.8-8h1.5l-3.1,12.4h-1.5l-2.4-9.5c-0.2-0.8-0.3-1.3-0.3-1.5
		c-0.1,0.6-0.2,1.1-0.3,1.5l-2.4,9.5L88.7,22.4L88.7,22.4z"/>
	<path class="st2" d="M101.7,22.4V10h8.1v1.5h-6.7v3.8h6.2v1.5h-6.2V21h6.9v1.5H101.7z"/>
	<path class="st2" d="M112.3,22.4V10h8.1v1.5h-6.7v3.8h6.2v1.5h-6.2V21h6.9v1.5H112.3z"/>
	<path class="st2" d="M122.7,22.4V10h1.5v6.2l5.6-6.2h2.1l-4.8,5l4.9,7.4h-2l-4-6.2l-1.8,1.9v4.3L122.7,22.4L122.7,22.4z"/>
	<path class="st2" d="M133.3,22.4V10h3.9c0.9,0,1.6,0.1,2,0.2c0.7,0.2,1.2,0.5,1.6,0.9c0.6,0.6,1.1,1.2,1.3,2.1
		c0.3,0.8,0.4,1.8,0.4,3c0,0.9-0.1,1.8-0.3,2.5c-0.2,0.7-0.5,1.3-0.7,1.8c-0.3,0.5-0.7,0.8-1.1,1.2c-0.4,0.2-0.8,0.5-1.3,0.7
		c-0.5,0.2-1.2,0.2-1.8,0.2h-3.9V22.4z M134.8,21h2.4c0.7,0,1.3-0.1,1.7-0.2c0.4-0.2,0.7-0.3,1-0.7c0.3-0.4,0.7-0.9,0.8-1.6
		c0.2-0.7,0.3-1.5,0.3-2.4c0-1.3-0.2-2.3-0.6-3c-0.4-0.7-0.8-1.2-1.4-1.4c-0.4-0.2-1.1-0.2-2-0.2h-2.4L134.8,21L134.8,21z"/>
	<path class="st2" d="M143.4,22.4l4.4-12.4h1.6l4.6,12.4h-1.7l-1.3-3.8h-4.7l-1.2,3.8H143.4z M146.7,17.3h3.9l-1.2-3.5
		c-0.3-1.1-0.7-1.9-0.8-2.5c-0.2,0.8-0.3,1.6-0.6,2.4L146.7,17.3z"/>
	<path class="st2" d="M157.2,22.4v-5.3l-4.4-7.2h1.8l2.2,3.8c0.4,0.7,0.8,1.4,1.2,2.1c0.3-0.7,0.7-1.4,1.2-2.2l2.2-3.6h1.7l-4.5,7.2
		v5.3L157.2,22.4L157.2,22.4z"/>
	<path class="st2" d="M164.1,18.4l1.4-0.2c0.1,0.7,0.2,1.2,0.5,1.6c0.2,0.4,0.7,0.7,1.2,1c0.5,0.2,1.1,0.3,1.7,0.3
		c0.6,0,1.1-0.1,1.5-0.2c0.4-0.2,0.7-0.4,1-0.7s0.3-0.7,0.3-1.1s-0.1-0.7-0.3-1c-0.2-0.3-0.6-0.6-1-0.7c-0.3-0.2-1-0.3-2-0.6
		c-1-0.2-1.7-0.5-2.2-0.7c-0.6-0.3-0.9-0.7-1.2-1.2c-0.2-0.5-0.4-1-0.4-1.6c0-0.7,0.2-1.2,0.5-1.7c0.3-0.6,0.8-1,1.4-1.2
		c0.7-0.2,1.3-0.4,2.1-0.4c0.8,0,1.6,0.2,2.2,0.4c0.7,0.2,1.2,0.7,1.5,1.3c0.3,0.6,0.5,1.2,0.6,2l-1.4,0.1c-0.1-0.8-0.3-1.4-0.8-1.8
		c-0.4-0.4-1.1-0.6-2-0.6s-1.6,0.2-2,0.6c-0.4,0.3-0.7,0.8-0.7,1.3c0,0.4,0.2,0.8,0.4,1.1c0.3,0.3,1.1,0.6,2.2,0.9
		c1.2,0.3,2.1,0.6,2.5,0.8c0.7,0.3,1.2,0.7,1.5,1.2c0.3,0.5,0.5,1.1,0.5,1.7s-0.2,1.3-0.5,1.9c-0.3,0.6-0.8,1.1-1.5,1.4
		c-0.7,0.3-1.4,0.5-2.1,0.5c-1,0-1.9-0.2-2.5-0.5c-0.7-0.3-1.2-0.8-1.6-1.5C164.3,20,164.1,19.2,164.1,18.4z"/>
</g>
<g class="st1">
	<path class="st2" d="M93.1,41.8c-0.5,0.6-1,1-1.5,1.2s-1.2,0.4-1.7,0.4c-1.2,0-2.1-0.4-2.7-1.3c-0.6-0.7-0.8-1.5-0.8-2.4
		c0-0.7,0.2-1.5,0.7-2.1c0.4-0.7,1.2-1.2,2.1-1.6c-0.5-0.7-0.8-1.2-1-1.6c-0.2-0.4-0.2-0.8-0.2-1.2c0-0.7,0.2-1.4,0.8-2
		c0.5-0.6,1.2-0.8,2-0.8s1.4,0.2,1.9,0.7s0.7,1.2,0.7,1.9c0,1.2-0.7,2.2-2.1,3l2.1,2.9c0.2-0.5,0.4-1.1,0.6-1.7l1.5,0.3
		c-0.2,1.1-0.6,2-1,2.7c0.5,0.7,1.1,1.4,1.7,1.9l-0.9,1.2C94.3,43.2,93.7,42.6,93.1,41.8z M92.2,40.6l-2.5-3.5
		c-0.7,0.5-1.2,1-1.5,1.4c-0.2,0.4-0.4,0.8-0.4,1.2c0,0.5,0.2,1,0.6,1.6c0.3,0.6,0.9,0.8,1.6,0.8c0.4,0,0.8-0.2,1.3-0.4
		C91.5,41.4,92,41,92.2,40.6z M90.2,35.3c0.6-0.4,1-0.7,1.2-1c0.2-0.3,0.2-0.7,0.2-1c0-0.4-0.1-0.7-0.3-1.1
		c-0.2-0.2-0.6-0.4-0.9-0.4c-0.4,0-0.7,0.2-0.9,0.4c-0.2,0.2-0.4,0.6-0.4,1c0,0.2,0.1,0.4,0.2,0.6c0.1,0.2,0.2,0.4,0.4,0.7
		L90.2,35.3z"/>
</g>
<g class="st1">
	<path class="st2" d="M99.6,43.2V32.3h1.3v4.4h5.2v-4.4h1.3v10.9h-1.3v-5.1h-5.2v5.1H99.6z"/>
	<path class="st2" d="M109.1,38c0-1.8,0.4-3.2,1.3-4.3c0.9-1,2.1-1.6,3.5-1.6c0.9,0,1.7,0.2,2.5,0.7s1.3,1.2,1.6,2
		c0.4,0.8,0.6,1.8,0.6,3c0,1.1-0.2,2.1-0.6,3c-0.4,0.9-1,1.6-1.7,2c-0.7,0.4-1.6,0.7-2.4,0.7c-0.9,0-1.7-0.2-2.5-0.7
		s-1.3-1.2-1.6-2.1C109.4,39.8,109.1,38.9,109.1,38z M110.5,38c0,1.3,0.3,2.4,1,3.1c0.7,0.7,1.5,1.2,2.4,1.2c1,0,1.8-0.4,2.5-1.2
		c0.7-0.7,1-1.8,1-3.2c0-0.9-0.2-1.6-0.4-2.3c-0.2-0.7-0.7-1.2-1.2-1.6c-0.5-0.3-1.2-0.6-1.7-0.6c-0.9,0-1.7,0.3-2.4,1.1
		C110.9,35.2,110.5,36.3,110.5,38z"/>
	<path class="st2" d="M120.2,43.2V32.3h1.3v9.6h4.9v1.3L120.2,43.2L120.2,43.2z"/>
	<path class="st2" d="M128.2,43.2V32.3h1.3v10.9H128.2z"/>
	<path class="st2" d="M131.8,43.2V32.3h3.5c0.7,0,1.4,0.1,1.7,0.2c0.6,0.2,1.1,0.4,1.5,0.7c0.5,0.5,0.9,1.1,1.2,1.9
		c0.2,0.7,0.4,1.6,0.4,2.5c0,0.8-0.1,1.6-0.2,2.2c-0.2,0.7-0.4,1.2-0.7,1.6s-0.6,0.7-0.9,1c-0.3,0.2-0.7,0.4-1.2,0.6
		c-0.5,0.2-1,0.2-1.6,0.2L131.8,43.2L131.8,43.2z M133.1,42h2.1c0.7,0,1.2-0.1,1.6-0.2c0.4-0.2,0.7-0.3,0.9-0.6
		c0.3-0.3,0.6-0.8,0.7-1.4s0.2-1.3,0.2-2.1c0-1.2-0.2-2.1-0.5-2.6c-0.3-0.6-0.7-1-1.2-1.2c-0.3-0.2-0.9-0.2-1.7-0.2h-2.1L133.1,42
		L133.1,42z"/>
	<path class="st2" d="M140.8,43.2l3.8-10.9h1.4l4,10.9h-1.5l-1.2-3.3h-4.1l-1.1,3.3H140.8z M143.6,38.8h3.4l-1.1-3
		c-0.3-0.9-0.6-1.6-0.7-2.2c-0.2,0.7-0.3,1.4-0.5,2.1L143.6,38.8z"/>
	<path class="st2" d="M152.9,43.2v-4.6l-3.8-6.2h1.6l2,3.3c0.3,0.6,0.7,1.2,1,1.8c0.3-0.6,0.7-1.2,1.1-1.9l1.9-3.2h1.6l-3.9,6.2v4.6
		L152.9,43.2L152.9,43.2z"/>
	<path class="st2" d="M158.9,39.8l1.2-0.1c0.1,0.6,0.2,1,0.4,1.3c0.2,0.3,0.6,0.7,1,0.8c0.4,0.2,1,0.3,1.5,0.3
		c0.5,0,0.9-0.1,1.3-0.2c0.4-0.2,0.7-0.4,0.8-0.7c0.2-0.2,0.2-0.6,0.2-0.9s-0.1-0.7-0.2-0.9c-0.2-0.2-0.5-0.5-0.9-0.7
		c-0.2-0.1-0.8-0.3-1.7-0.5c-0.9-0.2-1.6-0.5-1.9-0.7c-0.5-0.2-0.8-0.6-1.1-1c-0.2-0.4-0.3-0.8-0.3-1.3c0-0.6,0.2-1.1,0.4-1.6
		c0.2-0.5,0.7-0.8,1.2-1.1c0.6-0.2,1.2-0.4,1.8-0.4c0.7,0,1.4,0.2,2,0.4c0.6,0.2,1,0.7,1.3,1.2c0.3,0.5,0.5,1.1,0.5,1.7l-1.2,0.1
		c-0.1-0.7-0.3-1.2-0.7-1.6c-0.4-0.3-1-0.5-1.7-0.5c-0.8,0-1.4,0.2-1.7,0.5c-0.3,0.3-0.6,0.7-0.6,1.2c0,0.4,0.2,0.7,0.4,1
		c0.2,0.2,0.9,0.5,2,0.7c1.1,0.2,1.8,0.5,2.2,0.7c0.6,0.3,1,0.7,1.3,1.2c0.2,0.4,0.4,1,0.4,1.6c0,0.6-0.2,1.2-0.5,1.6
		c-0.3,0.5-0.7,0.9-1.3,1.2c-0.6,0.2-1.2,0.4-1.9,0.4c-0.9,0-1.6-0.2-2.2-0.4c-0.6-0.2-1.1-0.7-1.4-1.3
		C159,41.2,158.9,40.5,158.9,39.8z"/>
</g>
</svg>
