<?xml version="1.0" encoding="utf-8"?>
<!-- Generator: Adobe Illustrator 22.1.0, SVG Export Plug-In . SVG Version: 6.00 Build 0)  -->
<svg version="1.1" id="Layer_1" xmlns="http://www.w3.org/2000/svg" xmlns:xlink="http://www.w3.org/1999/xlink" x="0px" y="0px"
	 viewBox="0 0 255 68.2" style="enable-background:new 0 0 255 68.2;" xml:space="preserve">
<style type="text/css">
	.st0{fill:none;stroke:#F26739;stroke-width:3;stroke-miterlimit:10;}
	.st1{enable-background:new    ;}
	.st2{fill:#525353;stroke:#525353;stroke-linecap:round;stroke-linejoin:round;stroke-miterlimit:10;}
</style>
<path class="st0" d="M243,55c0,0,0.5-29.6-25.8-29.6s-42.5,0-42.5,0"/>
<path class="st0" d="M78.5,25.4c0,0-16.2,0-42.5,0S10.2,55,10.2,55"/>
<g class="st1">
	<path class="st2" d="M84.7,32.6l-3-14.5h1.5l1.7,9.5c0.2,1,0.3,2,0.5,3c0.3-1.6,0.5-2.4,0.5-2.7l2.1-9.8h1.8l1.6,7.3
		c0.4,1.8,0.7,3.5,0.9,5.1c0.2-0.9,0.3-2,0.5-3.2l1.7-9.4h1.5l-3,14.5h-1.4l-2.3-11.1c-0.2-0.9-0.3-1.5-0.3-1.7
		c-0.1,0.7-0.2,1.2-0.3,1.7l-2.3,11.1L84.7,32.6L84.7,32.6z"/>
	<path class="st2" d="M97.5,32.6V18.1h8v1.7h-6.6v4.4h6.2V26h-6.2v4.9h6.9v1.7H97.5z"/>
	<path class="st2" d="M107.9,32.6V18.1h8.1v1.7h-6.6v4.4h6.2V26h-6.2v4.9h6.9v1.7H107.9z"/>
	<path class="st2" d="M118.3,32.6V18.1h1.5v7.2l5.5-7.2h2l-4.7,5.9l4.9,8.7h-2l-4-7.3l-1.8,2.3v5.1h-1.6V32.6z"/>
	<path class="st2" d="M128.7,32.6V18.1h3.8c0.9,0,1.6,0.1,2,0.2c0.6,0.2,1.2,0.5,1.6,1c0.6,0.6,1,1.5,1.3,2.5c0.3,1,0.5,2.2,0.5,3.4
		c0,1.1-0.1,2.1-0.3,3s-0.5,1.6-0.8,2.1c-0.3,0.5-0.6,1-1,1.3c-0.4,0.3-0.8,0.5-1.3,0.7c-0.5,0.2-1.1,0.2-1.8,0.2H128.7z
		 M130.2,30.9h2.4c0.7,0,1.3-0.1,1.7-0.2c0.4-0.2,0.8-0.5,1-0.8c0.3-0.5,0.6-1.1,0.8-1.9c0.2-0.8,0.3-1.7,0.3-2.8
		c0-1.5-0.2-2.7-0.5-3.5c-0.4-0.8-0.9-1.3-1.4-1.6c-0.4-0.2-1-0.3-1.9-0.3h-2.3L130.2,30.9L130.2,30.9z"/>
	<path class="st2" d="M138.7,32.6l4.3-14.5h1.6l4.6,14.5h-1.7l-1.3-4.4h-4.7l-1.2,4.4H138.7z M142,26.7h3.7l-1.2-4.1
		c-0.4-1.2-0.6-2.3-0.8-3c-0.2,0.9-0.3,1.9-0.6,2.8L142,26.7z"/>
	<path class="st2" d="M152.3,32.6v-6.2l-4.3-8.3h1.8l2.2,4.4c0.4,0.9,0.8,1.6,1.2,2.5c0.3-0.8,0.7-1.6,1.2-2.6l2.2-4.3h1.7l-4.4,8.3
		v6.2L152.3,32.6L152.3,32.6z"/>
	<path class="st2" d="M159,27.9l1.4-0.2c0.1,0.7,0.2,1.3,0.5,1.8c0.2,0.5,0.6,0.9,1.1,1.1c0.5,0.3,1.1,0.5,1.7,0.5
		c0.5,0,1.1-0.1,1.5-0.3c0.5-0.2,0.8-0.5,0.9-0.9c0.2-0.4,0.3-0.8,0.3-1.2s-0.1-0.9-0.3-1.2c-0.2-0.3-0.5-0.6-1-0.9
		c-0.3-0.2-0.9-0.4-2-0.7s-1.7-0.6-2.2-0.9c-0.5-0.4-0.9-0.8-1.2-1.3s-0.4-1.2-0.4-1.8c0-0.7,0.2-1.4,0.5-2c0.3-0.6,0.8-1.1,1.4-1.5
		c0.6-0.3,1.3-0.5,2-0.5c0.9,0,1.6,0.2,2.2,0.5c0.6,0.3,1.1,0.9,1.5,1.6c0.3,0.7,0.5,1.4,0.5,2.3l-1.4,0.2c-0.1-0.9-0.3-1.6-0.8-2.1
		c-0.5-0.5-1.1-0.7-2-0.7c-0.9,0-1.6,0.2-2,0.6s-0.6,0.9-0.6,1.6c0,0.5,0.2,0.9,0.5,1.3c0.3,0.3,1,0.7,2.3,1c1.2,0.4,2,0.7,2.5,0.9
		c0.6,0.4,1.1,0.9,1.4,1.5c0.3,0.6,0.5,1.3,0.5,2.1s-0.2,1.5-0.5,2.2c-0.3,0.7-0.9,1.2-1.5,1.6c-0.6,0.4-1.3,0.5-2.2,0.5
		c-1,0-1.9-0.2-2.6-0.5c-0.7-0.4-1.2-0.9-1.6-1.7C159.3,29.8,159.1,29,159,27.9z"/>
</g>
</svg>
